<mxfile host="app.diagrams.net" agent="Mozilla/5.0 (Windows NT 10.0; Win64; x64) AppleWebKit/537.36 (KHTML, like Gecko) Chrome/136.0.0.0 Safari/537.36" version="27.1.4">
  <diagram name="Page-1" id="V7ujhzrHkqajD32PGJX8">
    <mxGraphModel dx="1965" dy="1148" grid="1" gridSize="10" guides="1" tooltips="1" connect="1" arrows="1" fold="1" page="1" pageScale="1" pageWidth="850" pageHeight="1100" math="0" shadow="0">
      <root>
        <mxCell id="0" />
        <mxCell id="1" parent="0" />
        <mxCell id="qm4IsnAkZlvp5DLXRIiu-13" value="AWS Cloud" style="points=[[0,0],[0.25,0],[0.5,0],[0.75,0],[1,0],[1,0.25],[1,0.5],[1,0.75],[1,1],[0.75,1],[0.5,1],[0.25,1],[0,1],[0,0.75],[0,0.5],[0,0.25]];outlineConnect=0;gradientColor=none;html=1;whiteSpace=wrap;fontSize=12;fontStyle=0;container=1;pointerEvents=0;collapsible=0;recursiveResize=0;shape=mxgraph.aws4.group;grIcon=mxgraph.aws4.group_aws_cloud_alt;strokeColor=#232F3E;fillColor=none;verticalAlign=top;align=left;spacingLeft=30;fontColor=#232F3E;dashed=0;" vertex="1" parent="1">
          <mxGeometry x="320" y="500" width="1040" height="815" as="geometry" />
        </mxCell>
        <mxCell id="qm4IsnAkZlvp5DLXRIiu-12" value="Region" style="points=[[0,0],[0.25,0],[0.5,0],[0.75,0],[1,0],[1,0.25],[1,0.5],[1,0.75],[1,1],[0.75,1],[0.5,1],[0.25,1],[0,1],[0,0.75],[0,0.5],[0,0.25]];outlineConnect=0;gradientColor=none;html=1;whiteSpace=wrap;fontSize=12;fontStyle=0;container=1;pointerEvents=0;collapsible=0;recursiveResize=0;shape=mxgraph.aws4.group;grIcon=mxgraph.aws4.group_region;strokeColor=#00A4A6;fillColor=none;verticalAlign=top;align=left;spacingLeft=30;fontColor=#147EBA;dashed=1;" vertex="1" parent="qm4IsnAkZlvp5DLXRIiu-13">
          <mxGeometry x="40" y="80" width="960" height="610" as="geometry" />
        </mxCell>
        <mxCell id="qm4IsnAkZlvp5DLXRIiu-15" value="VPC" style="sketch=0;outlineConnect=0;gradientColor=none;html=1;whiteSpace=wrap;fontSize=12;fontStyle=0;shape=mxgraph.aws4.group;grIcon=mxgraph.aws4.group_vpc;strokeColor=#879196;fillColor=none;verticalAlign=top;align=left;spacingLeft=30;fontColor=#879196;dashed=0;" vertex="1" parent="qm4IsnAkZlvp5DLXRIiu-12">
          <mxGeometry x="80" y="70" width="840" height="520" as="geometry" />
        </mxCell>
        <mxCell id="qm4IsnAkZlvp5DLXRIiu-18" value="Private subnet" style="points=[[0,0],[0.25,0],[0.5,0],[0.75,0],[1,0],[1,0.25],[1,0.5],[1,0.75],[1,1],[0.75,1],[0.5,1],[0.25,1],[0,1],[0,0.75],[0,0.5],[0,0.25]];outlineConnect=0;gradientColor=none;html=1;whiteSpace=wrap;fontSize=12;fontStyle=0;container=1;pointerEvents=0;collapsible=0;recursiveResize=0;shape=mxgraph.aws4.group;grIcon=mxgraph.aws4.group_security_group;grStroke=0;strokeColor=#00A4A6;fillColor=#E6F6F7;verticalAlign=top;align=left;spacingLeft=30;fontColor=#147EBA;dashed=0;" vertex="1" parent="qm4IsnAkZlvp5DLXRIiu-12">
          <mxGeometry x="160" y="350" width="260" height="200" as="geometry" />
        </mxCell>
        <mxCell id="qm4IsnAkZlvp5DLXRIiu-19" value="Public subnet" style="points=[[0,0],[0.25,0],[0.5,0],[0.75,0],[1,0],[1,0.25],[1,0.5],[1,0.75],[1,1],[0.75,1],[0.5,1],[0.25,1],[0,1],[0,0.75],[0,0.5],[0,0.25]];outlineConnect=0;gradientColor=none;html=1;whiteSpace=wrap;fontSize=12;fontStyle=0;container=1;pointerEvents=0;collapsible=0;recursiveResize=0;shape=mxgraph.aws4.group;grIcon=mxgraph.aws4.group_security_group;grStroke=0;strokeColor=#7AA116;fillColor=#F2F6E8;verticalAlign=top;align=left;spacingLeft=30;fontColor=#248814;dashed=0;" vertex="1" parent="qm4IsnAkZlvp5DLXRIiu-12">
          <mxGeometry x="160" y="160" width="260" height="130" as="geometry" />
        </mxCell>
        <mxCell id="qm4IsnAkZlvp5DLXRIiu-20" value="Public subnet" style="points=[[0,0],[0.25,0],[0.5,0],[0.75,0],[1,0],[1,0.25],[1,0.5],[1,0.75],[1,1],[0.75,1],[0.5,1],[0.25,1],[0,1],[0,0.75],[0,0.5],[0,0.25]];outlineConnect=0;gradientColor=none;html=1;whiteSpace=wrap;fontSize=12;fontStyle=0;container=1;pointerEvents=0;collapsible=0;recursiveResize=0;shape=mxgraph.aws4.group;grIcon=mxgraph.aws4.group_security_group;grStroke=0;strokeColor=#7AA116;fillColor=#F2F6E8;verticalAlign=top;align=left;spacingLeft=30;fontColor=#248814;dashed=0;" vertex="1" parent="qm4IsnAkZlvp5DLXRIiu-12">
          <mxGeometry x="560" y="160" width="260" height="130" as="geometry" />
        </mxCell>
        <mxCell id="qm4IsnAkZlvp5DLXRIiu-21" value="Private subnet" style="points=[[0,0],[0.25,0],[0.5,0],[0.75,0],[1,0],[1,0.25],[1,0.5],[1,0.75],[1,1],[0.75,1],[0.5,1],[0.25,1],[0,1],[0,0.75],[0,0.5],[0,0.25]];outlineConnect=0;gradientColor=none;html=1;whiteSpace=wrap;fontSize=12;fontStyle=0;container=1;pointerEvents=0;collapsible=0;recursiveResize=0;shape=mxgraph.aws4.group;grIcon=mxgraph.aws4.group_security_group;grStroke=0;strokeColor=#00A4A6;fillColor=#E6F6F7;verticalAlign=top;align=left;spacingLeft=30;fontColor=#147EBA;dashed=0;" vertex="1" parent="qm4IsnAkZlvp5DLXRIiu-12">
          <mxGeometry x="560" y="350" width="260" height="200" as="geometry" />
        </mxCell>
        <mxCell id="qm4IsnAkZlvp5DLXRIiu-22" value="&lt;span style=&quot;color: rgba(0, 0, 0, 0); font-family: monospace; font-size: 0px; text-wrap-mode: nowrap;&quot;&gt;%3CmxGraphModel%3E%3Croot%3E%3CmxCell%20id%3D%220%22%2F%3E%3CmxCell%20id%3D%221%22%20parent%3D%220%22%2F%3E%3CmxCell%20id%3D%222%22%20value%3D%22AWS%20EC2%22%20style%3D%22text%3Bhtml%3D1%3Balign%3Dcenter%3BverticalAlign%3Dmiddle%3Bresizable%3D0%3Bpoints%3D%5B%5D%3Bautosize%3D1%3BstrokeColor%3Dnone%3BfillColor%3Dnone%3B%22%20vertex%3D%221%22%20parent%3D%221%22%3E%3CmxGeometry%20x%3D%22670%22%20y%3D%221050%22%20width%3D%2280%22%20height%3D%2230%22%20as%3D%22geometry%22%2F%3E%3C%2FmxCell%3E%3C%2Froot%3E%3C%2FmxGraphModel%3E&lt;/span&gt;" style="sketch=0;outlineConnect=0;gradientColor=none;html=1;whiteSpace=wrap;fontSize=12;fontStyle=0;shape=mxgraph.aws4.group;grIcon=mxgraph.aws4.group_availability_zone;strokeColor=#545B64;fillColor=none;verticalAlign=top;align=left;spacingLeft=30;fontColor=#545B64;dashed=1;" vertex="1" parent="qm4IsnAkZlvp5DLXRIiu-12">
          <mxGeometry x="160" y="110" width="260" height="440" as="geometry" />
        </mxCell>
        <mxCell id="qm4IsnAkZlvp5DLXRIiu-23" value="Availability zone" style="sketch=0;outlineConnect=0;gradientColor=none;html=1;whiteSpace=wrap;fontSize=12;fontStyle=0;shape=mxgraph.aws4.group;grIcon=mxgraph.aws4.group_availability_zone;strokeColor=#545B64;fillColor=none;verticalAlign=top;align=left;spacingLeft=30;fontColor=#545B64;dashed=1;" vertex="1" parent="qm4IsnAkZlvp5DLXRIiu-12">
          <mxGeometry x="560" y="110" width="260" height="440" as="geometry" />
        </mxCell>
        <mxCell id="qm4IsnAkZlvp5DLXRIiu-25" value="" style="outlineConnect=0;dashed=0;verticalLabelPosition=bottom;verticalAlign=top;align=center;html=1;shape=mxgraph.aws3.application_load_balancer;fillColor=#F58534;gradientColor=none;" vertex="1" parent="qm4IsnAkZlvp5DLXRIiu-12">
          <mxGeometry x="460" y="170" width="60" height="60" as="geometry" />
        </mxCell>
        <mxCell id="qm4IsnAkZlvp5DLXRIiu-30" value="" style="outlineConnect=0;dashed=0;verticalLabelPosition=bottom;verticalAlign=top;align=center;html=1;shape=mxgraph.aws3.application_load_balancer;fillColor=#F58534;gradientColor=none;" vertex="1" parent="qm4IsnAkZlvp5DLXRIiu-12">
          <mxGeometry x="310" y="190" width="30" height="30" as="geometry" />
        </mxCell>
        <mxCell id="qm4IsnAkZlvp5DLXRIiu-32" value="" style="outlineConnect=0;dashed=0;verticalLabelPosition=bottom;verticalAlign=top;align=center;html=1;shape=mxgraph.aws3.application_load_balancer;fillColor=#F58534;gradientColor=none;" vertex="1" parent="qm4IsnAkZlvp5DLXRIiu-12">
          <mxGeometry x="610" y="190" width="30" height="30" as="geometry" />
        </mxCell>
        <mxCell id="qm4IsnAkZlvp5DLXRIiu-33" value="" style="sketch=0;points=[[0,0,0],[0.25,0,0],[0.5,0,0],[0.75,0,0],[1,0,0],[0,1,0],[0.25,1,0],[0.5,1,0],[0.75,1,0],[1,1,0],[0,0.25,0],[0,0.5,0],[0,0.75,0],[1,0.25,0],[1,0.5,0],[1,0.75,0]];outlineConnect=0;fontColor=#232F3E;fillColor=#ED7100;strokeColor=#ffffff;dashed=0;verticalLabelPosition=bottom;verticalAlign=top;align=center;html=1;fontSize=12;fontStyle=0;aspect=fixed;shape=mxgraph.aws4.resourceIcon;resIcon=mxgraph.aws4.ec2;" vertex="1" parent="qm4IsnAkZlvp5DLXRIiu-12">
          <mxGeometry x="320" y="390" width="60" height="60" as="geometry" />
        </mxCell>
        <mxCell id="qm4IsnAkZlvp5DLXRIiu-34" value="" style="sketch=0;points=[[0,0,0],[0.25,0,0],[0.5,0,0],[0.75,0,0],[1,0,0],[0,1,0],[0.25,1,0],[0.5,1,0],[0.75,1,0],[1,1,0],[0,0.25,0],[0,0.5,0],[0,0.75,0],[1,0.25,0],[1,0.5,0],[1,0.75,0]];outlineConnect=0;fontColor=#232F3E;fillColor=#ED7100;strokeColor=#ffffff;dashed=0;verticalLabelPosition=bottom;verticalAlign=top;align=center;html=1;fontSize=12;fontStyle=0;aspect=fixed;shape=mxgraph.aws4.resourceIcon;resIcon=mxgraph.aws4.ec2;" vertex="1" parent="qm4IsnAkZlvp5DLXRIiu-12">
          <mxGeometry x="600" y="390" width="60" height="60" as="geometry" />
        </mxCell>
        <mxCell id="qm4IsnAkZlvp5DLXRIiu-35" value="" style="sketch=0;points=[[0,0,0],[0.25,0,0],[0.5,0,0],[0.75,0,0],[1,0,0],[0,1,0],[0.25,1,0],[0.5,1,0],[0.75,1,0],[1,1,0],[0,0.25,0],[0,0.5,0],[0,0.75,0],[1,0.25,0],[1,0.5,0],[1,0.75,0]];outlineConnect=0;fontColor=#232F3E;fillColor=#C925D1;strokeColor=#ffffff;dashed=0;verticalLabelPosition=bottom;verticalAlign=top;align=center;html=1;fontSize=12;fontStyle=0;aspect=fixed;shape=mxgraph.aws4.resourceIcon;resIcon=mxgraph.aws4.rds;" vertex="1" parent="qm4IsnAkZlvp5DLXRIiu-12">
          <mxGeometry x="190" y="470" width="68" height="68" as="geometry" />
        </mxCell>
        <mxCell id="qm4IsnAkZlvp5DLXRIiu-36" value="" style="sketch=0;points=[[0,0,0],[0.25,0,0],[0.5,0,0],[0.75,0,0],[1,0,0],[0,1,0],[0.25,1,0],[0.5,1,0],[0.75,1,0],[1,1,0],[0,0.25,0],[0,0.5,0],[0,0.75,0],[1,0.25,0],[1,0.5,0],[1,0.75,0]];outlineConnect=0;fontColor=#232F3E;fillColor=#C925D1;strokeColor=#ffffff;dashed=0;verticalLabelPosition=bottom;verticalAlign=top;align=center;html=1;fontSize=12;fontStyle=0;aspect=fixed;shape=mxgraph.aws4.resourceIcon;resIcon=mxgraph.aws4.rds;" vertex="1" parent="qm4IsnAkZlvp5DLXRIiu-12">
          <mxGeometry x="720" y="470" width="68" height="68" as="geometry" />
        </mxCell>
        <mxCell id="qm4IsnAkZlvp5DLXRIiu-37" value="Auto Scaling group" style="points=[[0,0],[0.25,0],[0.5,0],[0.75,0],[1,0],[1,0.25],[1,0.5],[1,0.75],[1,1],[0.75,1],[0.5,1],[0.25,1],[0,1],[0,0.75],[0,0.5],[0,0.25]];outlineConnect=0;gradientColor=none;html=1;whiteSpace=wrap;fontSize=12;fontStyle=0;container=1;pointerEvents=0;collapsible=0;recursiveResize=0;shape=mxgraph.aws4.groupCenter;grIcon=mxgraph.aws4.group_auto_scaling_group;grStroke=1;strokeColor=#D86613;fillColor=none;verticalAlign=top;align=center;fontColor=#D86613;dashed=1;spacingTop=25;" vertex="1" parent="qm4IsnAkZlvp5DLXRIiu-12">
          <mxGeometry x="150" y="380" width="680" height="80" as="geometry" />
        </mxCell>
        <mxCell id="qm4IsnAkZlvp5DLXRIiu-68" value="" style="edgeStyle=none;orthogonalLoop=1;jettySize=auto;html=1;rounded=0;entryX=1.037;entryY=0.621;entryDx=0;entryDy=0;entryPerimeter=0;" edge="1" parent="qm4IsnAkZlvp5DLXRIiu-37" target="qm4IsnAkZlvp5DLXRIiu-33">
          <mxGeometry width="100" relative="1" as="geometry">
            <mxPoint x="340" y="-20" as="sourcePoint" />
            <mxPoint x="438" y="42.5" as="targetPoint" />
            <Array as="points" />
          </mxGeometry>
        </mxCell>
        <mxCell id="qm4IsnAkZlvp5DLXRIiu-55" value="AWS WAF" style="text;html=1;align=center;verticalAlign=middle;resizable=0;points=[];autosize=1;strokeColor=none;fillColor=none;" vertex="1" parent="qm4IsnAkZlvp5DLXRIiu-12">
          <mxGeometry x="530" width="80" height="30" as="geometry" />
        </mxCell>
        <mxCell id="qm4IsnAkZlvp5DLXRIiu-67" value="" style="edgeStyle=none;orthogonalLoop=1;jettySize=auto;html=1;rounded=0;entryX=0;entryY=0.5;entryDx=0;entryDy=0;entryPerimeter=0;" edge="1" parent="qm4IsnAkZlvp5DLXRIiu-12" source="qm4IsnAkZlvp5DLXRIiu-57">
          <mxGeometry width="100" relative="1" as="geometry">
            <mxPoint x="490" y="230" as="sourcePoint" />
            <mxPoint x="602" y="420" as="targetPoint" />
            <Array as="points">
              <mxPoint x="490" y="360" />
            </Array>
          </mxGeometry>
        </mxCell>
        <mxCell id="qm4IsnAkZlvp5DLXRIiu-70" value="" style="edgeStyle=segmentEdgeStyle;endArrow=classic;html=1;curved=0;rounded=0;endSize=8;startSize=8;sourcePerimeterSpacing=0;targetPerimeterSpacing=0;entryX=0;entryY=0.5;entryDx=0;entryDy=0;entryPerimeter=0;" edge="1" parent="qm4IsnAkZlvp5DLXRIiu-12" target="qm4IsnAkZlvp5DLXRIiu-36">
          <mxGeometry width="100" relative="1" as="geometry">
            <mxPoint x="660" y="420" as="sourcePoint" />
            <mxPoint x="760" y="460" as="targetPoint" />
            <Array as="points">
              <mxPoint x="690" y="420" />
              <mxPoint x="690" y="504" />
            </Array>
          </mxGeometry>
        </mxCell>
        <mxCell id="qm4IsnAkZlvp5DLXRIiu-72" value="" style="edgeStyle=segmentEdgeStyle;endArrow=classic;html=1;curved=0;rounded=0;endSize=8;startSize=8;sourcePerimeterSpacing=0;targetPerimeterSpacing=0;entryX=0.385;entryY=0.886;entryDx=0;entryDy=0;entryPerimeter=0;" edge="1" parent="qm4IsnAkZlvp5DLXRIiu-12" source="qm4IsnAkZlvp5DLXRIiu-33" target="qm4IsnAkZlvp5DLXRIiu-22">
          <mxGeometry width="100" relative="1" as="geometry">
            <mxPoint x="298" y="420" as="sourcePoint" />
            <mxPoint x="318" y="504" as="targetPoint" />
            <Array as="points">
              <mxPoint x="298" y="420" />
              <mxPoint x="298" y="500" />
            </Array>
          </mxGeometry>
        </mxCell>
        <mxCell id="qm4IsnAkZlvp5DLXRIiu-74" value="" style="rounded=1;arcSize=10;dashed=1;strokeColor=#ff0000;fillColor=none;gradientColor=none;dashPattern=8 4;strokeWidth=2;" vertex="1" parent="qm4IsnAkZlvp5DLXRIiu-12">
          <mxGeometry x="310" y="372.5" width="80" height="95" as="geometry" />
        </mxCell>
        <mxCell id="qm4IsnAkZlvp5DLXRIiu-66" value="" style="rounded=1;arcSize=10;dashed=1;strokeColor=#ff0000;fillColor=none;gradientColor=none;dashPattern=8 4;strokeWidth=2;" vertex="1" parent="qm4IsnAkZlvp5DLXRIiu-12">
          <mxGeometry x="590" y="372.5" width="80" height="95" as="geometry" />
        </mxCell>
        <mxCell id="qm4IsnAkZlvp5DLXRIiu-57" value="AWS ALB" style="text;html=1;align=center;verticalAlign=middle;resizable=0;points=[];autosize=1;strokeColor=none;fillColor=none;" vertex="1" parent="qm4IsnAkZlvp5DLXRIiu-12">
          <mxGeometry x="450" y="230" width="80" height="30" as="geometry" />
        </mxCell>
        <mxCell id="qm4IsnAkZlvp5DLXRIiu-58" value="AWS RDS" style="text;html=1;align=center;verticalAlign=middle;resizable=0;points=[];autosize=1;strokeColor=none;fillColor=none;" vertex="1" parent="qm4IsnAkZlvp5DLXRIiu-12">
          <mxGeometry x="184" y="530" width="80" height="30" as="geometry" />
        </mxCell>
        <mxCell id="qm4IsnAkZlvp5DLXRIiu-78" value="AWS RDS" style="text;html=1;align=center;verticalAlign=middle;resizable=0;points=[];autosize=1;strokeColor=none;fillColor=none;" vertex="1" parent="qm4IsnAkZlvp5DLXRIiu-12">
          <mxGeometry x="720" y="530" width="80" height="30" as="geometry" />
        </mxCell>
        <mxCell id="qm4IsnAkZlvp5DLXRIiu-79" value="App Server" style="text;html=1;align=center;verticalAlign=middle;resizable=0;points=[];autosize=1;strokeColor=none;fillColor=none;" vertex="1" parent="qm4IsnAkZlvp5DLXRIiu-12">
          <mxGeometry x="590" y="467.5" width="80" height="30" as="geometry" />
        </mxCell>
        <mxCell id="qm4IsnAkZlvp5DLXRIiu-59" value="App Server" style="text;html=1;align=center;verticalAlign=middle;resizable=0;points=[];autosize=1;strokeColor=none;fillColor=none;" vertex="1" parent="qm4IsnAkZlvp5DLXRIiu-12">
          <mxGeometry x="310" y="470" width="80" height="30" as="geometry" />
        </mxCell>
        <mxCell id="qm4IsnAkZlvp5DLXRIiu-81" value="" style="rounded=1;arcSize=10;dashed=1;strokeColor=#ff0000;fillColor=none;gradientColor=none;dashPattern=8 4;strokeWidth=2;" vertex="1" parent="qm4IsnAkZlvp5DLXRIiu-12">
          <mxGeometry x="190" y="195" width="60" height="65" as="geometry" />
        </mxCell>
        <mxCell id="qm4IsnAkZlvp5DLXRIiu-82" style="edgeStyle=orthogonalEdgeStyle;rounded=0;orthogonalLoop=1;jettySize=auto;html=1;exitX=0.5;exitY=1;exitDx=0;exitDy=0;exitPerimeter=0;" edge="1" parent="qm4IsnAkZlvp5DLXRIiu-12" source="qm4IsnAkZlvp5DLXRIiu-30" target="qm4IsnAkZlvp5DLXRIiu-30">
          <mxGeometry relative="1" as="geometry" />
        </mxCell>
        <mxCell id="qm4IsnAkZlvp5DLXRIiu-83" value="" style="sketch=0;points=[[0,0,0],[0.25,0,0],[0.5,0,0],[0.75,0,0],[1,0,0],[0,1,0],[0.25,1,0],[0.5,1,0],[0.75,1,0],[1,1,0],[0,0.25,0],[0,0.5,0],[0,0.75,0],[1,0.25,0],[1,0.5,0],[1,0.75,0]];outlineConnect=0;fontColor=#232F3E;fillColor=#ED7100;strokeColor=#ffffff;dashed=0;verticalLabelPosition=bottom;verticalAlign=top;align=center;html=1;fontSize=12;fontStyle=0;aspect=fixed;shape=mxgraph.aws4.resourceIcon;resIcon=mxgraph.aws4.ec2;" vertex="1" parent="qm4IsnAkZlvp5DLXRIiu-12">
          <mxGeometry x="195" y="202.5" width="50" height="50" as="geometry" />
        </mxCell>
        <mxCell id="qm4IsnAkZlvp5DLXRIiu-84" value="BastionHost" style="text;html=1;align=center;verticalAlign=middle;resizable=0;points=[];autosize=1;strokeColor=none;fillColor=none;" vertex="1" parent="qm4IsnAkZlvp5DLXRIiu-12">
          <mxGeometry x="173" y="260" width="90" height="30" as="geometry" />
        </mxCell>
        <mxCell id="qm4IsnAkZlvp5DLXRIiu-86" value="Availability Zone 1" style="text;html=1;align=center;verticalAlign=middle;resizable=0;points=[];autosize=1;strokeColor=none;fillColor=none;" vertex="1" parent="qm4IsnAkZlvp5DLXRIiu-12">
          <mxGeometry x="190" y="110" width="120" height="30" as="geometry" />
        </mxCell>
        <mxCell id="qm4IsnAkZlvp5DLXRIiu-88" value="" style="sketch=0;outlineConnect=0;fontColor=#232F3E;gradientColor=none;fillColor=#8C4FFF;strokeColor=none;dashed=0;verticalLabelPosition=bottom;verticalAlign=top;align=center;html=1;fontSize=12;fontStyle=0;aspect=fixed;pointerEvents=1;shape=mxgraph.aws4.internet_gateway;" vertex="1" parent="qm4IsnAkZlvp5DLXRIiu-12">
          <mxGeometry x="870" y="50" width="40" height="40" as="geometry" />
        </mxCell>
        <mxCell id="qm4IsnAkZlvp5DLXRIiu-89" value="IGW" style="text;html=1;align=center;verticalAlign=middle;resizable=0;points=[];autosize=1;strokeColor=none;fillColor=none;" vertex="1" parent="qm4IsnAkZlvp5DLXRIiu-12">
          <mxGeometry x="865" y="90" width="50" height="30" as="geometry" />
        </mxCell>
        <mxCell id="qm4IsnAkZlvp5DLXRIiu-87" value="2" style="text;html=1;align=center;verticalAlign=middle;resizable=0;points=[];autosize=1;strokeColor=none;fillColor=none;" vertex="1" parent="qm4IsnAkZlvp5DLXRIiu-12">
          <mxGeometry x="670" y="110" width="30" height="30" as="geometry" />
        </mxCell>
        <mxCell id="qm4IsnAkZlvp5DLXRIiu-90" value="10.10.0.0/16" style="text;html=1;align=center;verticalAlign=middle;resizable=0;points=[];autosize=1;strokeColor=none;fillColor=none;" vertex="1" parent="qm4IsnAkZlvp5DLXRIiu-12">
          <mxGeometry x="130" y="70" width="90" height="30" as="geometry" />
        </mxCell>
        <mxCell id="qm4IsnAkZlvp5DLXRIiu-91" value="10.10.11.0/124" style="text;html=1;align=center;verticalAlign=middle;resizable=0;points=[];autosize=1;strokeColor=none;fillColor=none;" vertex="1" parent="qm4IsnAkZlvp5DLXRIiu-12">
          <mxGeometry x="264" y="160" width="100" height="30" as="geometry" />
        </mxCell>
        <mxCell id="qm4IsnAkZlvp5DLXRIiu-93" value="10.10.12.0/124" style="text;html=1;align=center;verticalAlign=middle;resizable=0;points=[];autosize=1;strokeColor=none;fillColor=none;" vertex="1" parent="qm4IsnAkZlvp5DLXRIiu-12">
          <mxGeometry x="660" y="160" width="100" height="30" as="geometry" />
        </mxCell>
        <mxCell id="qm4IsnAkZlvp5DLXRIiu-94" value="10.10.22.0/124" style="text;html=1;align=center;verticalAlign=middle;resizable=0;points=[];autosize=1;strokeColor=none;fillColor=none;" vertex="1" parent="qm4IsnAkZlvp5DLXRIiu-12">
          <mxGeometry x="270" y="350" width="100" height="30" as="geometry" />
        </mxCell>
        <mxCell id="qm4IsnAkZlvp5DLXRIiu-92" value="10.10.32.0/124" style="text;html=1;align=center;verticalAlign=middle;resizable=0;points=[];autosize=1;strokeColor=none;fillColor=none;" vertex="1" parent="qm4IsnAkZlvp5DLXRIiu-12">
          <mxGeometry x="670" y="350" width="100" height="30" as="geometry" />
        </mxCell>
        <mxCell id="qm4IsnAkZlvp5DLXRIiu-96" value="" style="sketch=0;outlineConnect=0;fontColor=#232F3E;gradientColor=none;fillColor=#8C4FFF;strokeColor=none;dashed=0;verticalLabelPosition=bottom;verticalAlign=top;align=center;html=1;fontSize=12;fontStyle=0;aspect=fixed;pointerEvents=1;shape=mxgraph.aws4.nat_gateway;" vertex="1" parent="qm4IsnAkZlvp5DLXRIiu-12">
          <mxGeometry x="340" y="220" width="50" height="50" as="geometry" />
        </mxCell>
        <mxCell id="qm4IsnAkZlvp5DLXRIiu-97" value="NAT GW" style="text;html=1;align=center;verticalAlign=middle;resizable=0;points=[];autosize=1;strokeColor=none;fillColor=none;" vertex="1" parent="qm4IsnAkZlvp5DLXRIiu-12">
          <mxGeometry x="330" y="270" width="70" height="30" as="geometry" />
        </mxCell>
        <mxCell id="qm4IsnAkZlvp5DLXRIiu-39" value="" style="sketch=0;points=[[0,0,0],[0.25,0,0],[0.5,0,0],[0.75,0,0],[1,0,0],[0,1,0],[0.25,1,0],[0.5,1,0],[0.75,1,0],[1,1,0],[0,0.25,0],[0,0.5,0],[0,0.75,0],[1,0.25,0],[1,0.5,0],[1,0.75,0]];points=[[0,0,0],[0.25,0,0],[0.5,0,0],[0.75,0,0],[1,0,0],[0,1,0],[0.25,1,0],[0.5,1,0],[0.75,1,0],[1,1,0],[0,0.25,0],[0,0.5,0],[0,0.75,0],[1,0.25,0],[1,0.5,0],[1,0.75,0]];outlineConnect=0;fontColor=#232F3E;fillColor=#E7157B;strokeColor=#ffffff;dashed=0;verticalLabelPosition=bottom;verticalAlign=top;align=center;html=1;fontSize=12;fontStyle=0;aspect=fixed;shape=mxgraph.aws4.resourceIcon;resIcon=mxgraph.aws4.cloudwatch_2;" vertex="1" parent="qm4IsnAkZlvp5DLXRIiu-13">
          <mxGeometry x="360" y="697" width="78" height="78" as="geometry" />
        </mxCell>
        <mxCell id="qm4IsnAkZlvp5DLXRIiu-40" value="" style="sketch=0;points=[[0,0,0],[0.25,0,0],[0.5,0,0],[0.75,0,0],[1,0,0],[0,1,0],[0.25,1,0],[0.5,1,0],[0.75,1,0],[1,1,0],[0,0.25,0],[0,0.5,0],[0,0.75,0],[1,0.25,0],[1,0.5,0],[1,0.75,0]];points=[[0,0,0],[0.25,0,0],[0.5,0,0],[0.75,0,0],[1,0,0],[0,1,0],[0.25,1,0],[0.5,1,0],[0.75,1,0],[1,1,0],[0,0.25,0],[0,0.5,0],[0,0.75,0],[1,0.25,0],[1,0.5,0],[1,0.75,0]];outlineConnect=0;fontColor=#232F3E;fillColor=#E7157B;strokeColor=#ffffff;dashed=0;verticalLabelPosition=bottom;verticalAlign=top;align=center;html=1;fontSize=12;fontStyle=0;aspect=fixed;shape=mxgraph.aws4.resourceIcon;resIcon=mxgraph.aws4.cloudtrail;" vertex="1" parent="qm4IsnAkZlvp5DLXRIiu-13">
          <mxGeometry x="490" y="697" width="78" height="78" as="geometry" />
        </mxCell>
        <mxCell id="qm4IsnAkZlvp5DLXRIiu-41" value="" style="sketch=0;points=[[0,0,0],[0.25,0,0],[0.5,0,0],[0.75,0,0],[1,0,0],[0,1,0],[0.25,1,0],[0.5,1,0],[0.75,1,0],[1,1,0],[0,0.25,0],[0,0.5,0],[0,0.75,0],[1,0.25,0],[1,0.5,0],[1,0.75,0]];outlineConnect=0;fontColor=#232F3E;fillColor=#DD344C;strokeColor=#ffffff;dashed=0;verticalLabelPosition=bottom;verticalAlign=top;align=center;html=1;fontSize=12;fontStyle=0;aspect=fixed;shape=mxgraph.aws4.resourceIcon;resIcon=mxgraph.aws4.certificate_manager_3;" vertex="1" parent="qm4IsnAkZlvp5DLXRIiu-13">
          <mxGeometry x="620" y="697" width="78" height="78" as="geometry" />
        </mxCell>
        <mxCell id="qm4IsnAkZlvp5DLXRIiu-42" value="" style="sketch=0;points=[[0,0,0],[0.25,0,0],[0.5,0,0],[0.75,0,0],[1,0,0],[0,1,0],[0.25,1,0],[0.5,1,0],[0.75,1,0],[1,1,0],[0,0.25,0],[0,0.5,0],[0,0.75,0],[1,0.25,0],[1,0.5,0],[1,0.75,0]];points=[[0,0,0],[0.25,0,0],[0.5,0,0],[0.75,0,0],[1,0,0],[0,1,0],[0.25,1,0],[0.5,1,0],[0.75,1,0],[1,1,0],[0,0.25,0],[0,0.5,0],[0,0.75,0],[1,0.25,0],[1,0.5,0],[1,0.75,0]];outlineConnect=0;fontColor=#232F3E;fillColor=#E7157B;strokeColor=#ffffff;dashed=0;verticalLabelPosition=bottom;verticalAlign=top;align=center;html=1;fontSize=12;fontStyle=0;aspect=fixed;shape=mxgraph.aws4.resourceIcon;resIcon=mxgraph.aws4.systems_manager;" vertex="1" parent="qm4IsnAkZlvp5DLXRIiu-13">
          <mxGeometry x="750" y="697" width="78" height="78" as="geometry" />
        </mxCell>
        <mxCell id="qm4IsnAkZlvp5DLXRIiu-45" value="AWS CloudWatch" style="text;html=1;align=center;verticalAlign=middle;resizable=0;points=[];autosize=1;strokeColor=none;fillColor=none;" vertex="1" parent="qm4IsnAkZlvp5DLXRIiu-13">
          <mxGeometry x="339" y="780" width="120" height="30" as="geometry" />
        </mxCell>
        <mxCell id="qm4IsnAkZlvp5DLXRIiu-46" value="AWS Cloud Trail" style="text;html=1;align=center;verticalAlign=middle;resizable=0;points=[];autosize=1;strokeColor=none;fillColor=none;" vertex="1" parent="qm4IsnAkZlvp5DLXRIiu-13">
          <mxGeometry x="474" y="780" width="110" height="30" as="geometry" />
        </mxCell>
        <mxCell id="qm4IsnAkZlvp5DLXRIiu-47" value="AWS Certificate&amp;nbsp;&lt;div&gt;Manager&lt;/div&gt;" style="text;html=1;align=center;verticalAlign=middle;resizable=0;points=[];autosize=1;strokeColor=none;fillColor=none;" vertex="1" parent="qm4IsnAkZlvp5DLXRIiu-13">
          <mxGeometry x="604" y="775" width="110" height="40" as="geometry" />
        </mxCell>
        <mxCell id="qm4IsnAkZlvp5DLXRIiu-48" value="AWS System Manager" style="text;html=1;align=center;verticalAlign=middle;resizable=0;points=[];autosize=1;strokeColor=none;fillColor=none;" vertex="1" parent="qm4IsnAkZlvp5DLXRIiu-13">
          <mxGeometry x="719" y="780" width="140" height="30" as="geometry" />
        </mxCell>
        <mxCell id="qm4IsnAkZlvp5DLXRIiu-27" value="" style="sketch=0;points=[[0,0,0],[0.25,0,0],[0.5,0,0],[0.75,0,0],[1,0,0],[0,1,0],[0.25,1,0],[0.5,1,0],[0.75,1,0],[1,1,0],[0,0.25,0],[0,0.5,0],[0,0.75,0],[1,0.25,0],[1,0.5,0],[1,0.75,0]];outlineConnect=0;fontColor=#232F3E;fillColor=#DD344C;strokeColor=#ffffff;dashed=0;verticalLabelPosition=bottom;verticalAlign=top;align=center;html=1;fontSize=12;fontStyle=0;aspect=fixed;shape=mxgraph.aws4.resourceIcon;resIcon=mxgraph.aws4.waf;" vertex="1" parent="qm4IsnAkZlvp5DLXRIiu-13">
          <mxGeometry x="578" y="30" width="50" height="50" as="geometry" />
        </mxCell>
        <mxCell id="qm4IsnAkZlvp5DLXRIiu-56" value="AWS Route 53" style="text;html=1;align=center;verticalAlign=middle;resizable=0;points=[];autosize=1;strokeColor=none;fillColor=none;" vertex="1" parent="qm4IsnAkZlvp5DLXRIiu-13">
          <mxGeometry x="390" y="20" width="100" height="30" as="geometry" />
        </mxCell>
        <mxCell id="qm4IsnAkZlvp5DLXRIiu-61" value="" style="sketch=0;points=[[0,0,0],[0.25,0,0],[0.5,0,0],[0.75,0,0],[1,0,0],[0,1,0],[0.25,1,0],[0.5,1,0],[0.75,1,0],[1,1,0],[0,0.25,0],[0,0.5,0],[0,0.75,0],[1,0.25,0],[1,0.5,0],[1,0.75,0]];outlineConnect=0;fontColor=#232F3E;fillColor=#ED7100;strokeColor=#ffffff;dashed=0;verticalLabelPosition=bottom;verticalAlign=top;align=center;html=1;fontSize=12;fontStyle=0;aspect=fixed;shape=mxgraph.aws4.resourceIcon;resIcon=mxgraph.aws4.ecr;" vertex="1" parent="qm4IsnAkZlvp5DLXRIiu-13">
          <mxGeometry x="230" y="697" width="78" height="78" as="geometry" />
        </mxCell>
        <mxCell id="qm4IsnAkZlvp5DLXRIiu-63" value="AWS ECR" style="text;html=1;align=center;verticalAlign=middle;resizable=0;points=[];autosize=1;strokeColor=none;fillColor=none;" vertex="1" parent="qm4IsnAkZlvp5DLXRIiu-13">
          <mxGeometry x="220" y="780" width="80" height="30" as="geometry" />
        </mxCell>
        <mxCell id="qm4IsnAkZlvp5DLXRIiu-85" value="" style="sketch=0;outlineConnect=0;fontColor=#232F3E;gradientColor=none;fillColor=#232F3D;strokeColor=none;dashed=0;verticalLabelPosition=bottom;verticalAlign=top;align=center;html=1;fontSize=12;fontStyle=0;aspect=fixed;pointerEvents=1;shape=mxgraph.aws4.ssl_padlock;" vertex="1" parent="qm4IsnAkZlvp5DLXRIiu-13">
          <mxGeometry x="510" y="-20.52" width="41.58" height="40.52" as="geometry" />
        </mxCell>
        <mxCell id="qm4IsnAkZlvp5DLXRIiu-29" value="" style="sketch=0;points=[[0,0,0],[0.25,0,0],[0.5,0,0],[0.75,0,0],[1,0,0],[0,1,0],[0.25,1,0],[0.5,1,0],[0.75,1,0],[1,1,0],[0,0.25,0],[0,0.5,0],[0,0.75,0],[1,0.25,0],[1,0.5,0],[1,0.75,0]];outlineConnect=0;fontColor=#232F3E;fillColor=#8C4FFF;strokeColor=#ffffff;dashed=0;verticalLabelPosition=bottom;verticalAlign=top;align=center;html=1;fontSize=12;fontStyle=0;aspect=fixed;shape=mxgraph.aws4.resourceIcon;resIcon=mxgraph.aws4.route_53;" vertex="1" parent="qm4IsnAkZlvp5DLXRIiu-13">
          <mxGeometry x="419" y="-20" width="40" height="40" as="geometry" />
        </mxCell>
        <mxCell id="qm4IsnAkZlvp5DLXRIiu-26" value="" style="sketch=0;outlineConnect=0;fontColor=#232F3E;gradientColor=none;fillColor=#232F3D;strokeColor=none;dashed=0;verticalLabelPosition=bottom;verticalAlign=top;align=center;html=1;fontSize=12;fontStyle=0;aspect=fixed;pointerEvents=1;shape=mxgraph.aws4.users;" vertex="1" parent="1">
          <mxGeometry x="814" y="320" width="70" height="70" as="geometry" />
        </mxCell>
        <mxCell id="qm4IsnAkZlvp5DLXRIiu-60" value="Users" style="text;html=1;align=center;verticalAlign=middle;resizable=0;points=[];autosize=1;strokeColor=none;fillColor=none;fontSize=14;" vertex="1" parent="1">
          <mxGeometry x="819" y="280" width="60" height="30" as="geometry" />
        </mxCell>
        <mxCell id="qm4IsnAkZlvp5DLXRIiu-65" value="" style="edgeStyle=none;orthogonalLoop=1;jettySize=auto;html=1;rounded=0;entryX=0.5;entryY=0;entryDx=0;entryDy=0;entryPerimeter=0;" edge="1" parent="1" source="qm4IsnAkZlvp5DLXRIiu-26" target="qm4IsnAkZlvp5DLXRIiu-25">
          <mxGeometry width="100" relative="1" as="geometry">
            <mxPoint x="840" y="370" as="sourcePoint" />
            <mxPoint x="490" y="380" as="targetPoint" />
            <Array as="points" />
          </mxGeometry>
        </mxCell>
        <mxCell id="qm4IsnAkZlvp5DLXRIiu-95" value="" style="endArrow=none;html=1;rounded=0;exitX=0.5;exitY=0;exitDx=0;exitDy=0;exitPerimeter=0;" edge="1" parent="1" source="qm4IsnAkZlvp5DLXRIiu-29">
          <mxGeometry width="50" height="50" relative="1" as="geometry">
            <mxPoint x="670" y="350" as="sourcePoint" />
            <mxPoint x="850" y="430" as="targetPoint" />
            <Array as="points">
              <mxPoint x="759" y="430" />
            </Array>
          </mxGeometry>
        </mxCell>
      </root>
    </mxGraphModel>
  </diagram>
</mxfile>
